<?xml version="1.0" standalone="no"?><!DOCTYPE svg PUBLIC "-//W3C//DTD SVG 1.1//EN" "http://www.w3.org/Graphics/SVG/1.1/DTD/svg11.dtd"><svg t="1620871903544" class="icon" viewBox="0 0 1024 1024" version="1.1" xmlns="http://www.w3.org/2000/svg" p-id="2274" xmlns:xlink="http://www.w3.org/1999/xlink" width="200" height="200"><defs><style type="text/css"></style></defs><path d="M768.3584 72.6016a100.4544 100.4544 0 0 1 102.2976 102.2464v569.1904c0 10.24-4.5568 19.456-11.776 25.7024l-3.7888 2.8672a33.8944 33.8944 0 0 1-13.5168 5.12l-5.0176 0.3584H280.9344c-35.7376 0-64.6656 28.9792-64.6656 64.7168a62.6688 62.6688 0 0 0 64.6656 64.6656h555.6224a32.3584 32.3584 0 0 1 34.0992 34.048 34.1504 34.1504 0 0 1-34.0992 34.304H280.9344a133.12 133.12 0 0 1-132.9152-132.9664L147.968 174.848a100.4544 100.4544 0 0 1 102.2464-102.2464h518.144z m0 68.1472H250.2144a32.3584 32.3584 0 0 0-34.048 34.0992L216.064 726.016c19.6608-10.752 41.984-16.384 64.8192-16.0256h521.5232V174.8992a32.3584 32.3584 0 0 0-34.0992-34.1504z m-81.8176 412.3648a32.3584 32.3584 0 0 1 34.0992 34.048 34.1504 34.1504 0 0 1-34.0992 34.0992H342.272a34.0992 34.0992 0 1 1 0-68.1472h344.2688z m0-136.3968a32.3584 32.3584 0 0 1 34.0992 34.0992 34.1504 34.1504 0 0 1-34.0992 34.0992H342.272a34.0992 34.0992 0 1 1 0-68.1984h344.2688z m0-136.3456a32.3584 32.3584 0 0 1 34.0992 34.0992 34.1504 34.1504 0 0 1-34.0992 34.0992H342.272a34.0992 34.0992 0 0 1 0-68.1984h344.2688z" p-id="2275"></path></svg>