<?xml version="1.0" encoding="UTF-8"?>
<svg width="14px" height="14px" viewBox="0 0 14 14" version="1.1" xmlns="http://www.w3.org/2000/svg" xmlns:xlink="http://www.w3.org/1999/xlink">
    <title>形状结合</title>
    <g id="租户管理系统" stroke="none" stroke-width="1" fill="none" fill-rule="evenodd">
        <g id="1.租户信息管理" transform="translate(-1865.000000, -196.000000)" fill="#334155">
            <g id="编组-7备份" transform="translate(1856.000000, 187.000000)">
                <g id="列表" transform="translate(16.000000, 16.000000) rotate(-270.000000) translate(-16.000000, -16.000000) translate(8.000000, 8.000000)">
                    <path d="M5.94060938,8.67260938 C6.69345313,8.67260938 7.3059375,9.28509375 7.3059375,10.0379375 L7.3059375,13.4512656 C7.3059375,14.2041094 6.69345313,14.8165938 5.94060938,14.8165938 L2.52728125,14.8165938 C1.7744375,14.8165938 1.16195313,14.2041094 1.16195313,13.4512656 L1.16195313,10.0379375 C1.16195313,9.28509375 1.7744375,8.67260938 2.52728125,8.67260938 L5.94060938,8.67260938 Z M5.94060938,9.81039063 L2.52728125,9.81039063 C2.40179688,9.81039063 2.29973438,9.91246875 2.29973438,10.0379375 L2.29973438,13.4512656 C2.29973438,13.57675 2.4018125,13.6788125 2.52728125,13.6788125 L5.94060938,13.6788125 C6.06609375,13.6788125 6.16815625,13.5767344 6.16815625,13.4512656 L6.16815625,10.0379375 C6.16815625,9.91245313 6.06607813,9.81039063 5.94060938,9.81039063 Z M14.2464062,12.33625 C14.5605937,12.33625 14.8152969,12.5909531 14.8152969,12.9051406 C14.8152969,13.2193281 14.5605937,13.4740313 14.2464062,13.4740313 L9.2401875,13.4740313 C8.926,13.4740313 8.67129687,13.2193281 8.67129687,12.9051406 C8.67129687,12.5909531 8.926,12.33625 9.2401875,12.33625 L14.2464062,12.33625 Z M14.2464062,10.0151875 C14.5605937,10.0151875 14.8152969,10.2698906 14.8152969,10.5840781 C14.8152969,10.8982656 14.5605937,11.1529687 14.2464062,11.1529687 L9.2401875,11.1529687 C8.926,11.1529687 8.67129687,10.8982656 8.67129687,10.5840781 C8.67129687,10.2698906 8.926,10.0151875 9.2401875,10.0151875 L14.2464062,10.0151875 Z M5.94060938,1.18342187 C6.69345313,1.18342187 7.3059375,1.79590625 7.3059375,2.54875 L7.3059375,5.96207812 C7.3059375,6.71492187 6.69345313,7.32740625 5.94060938,7.32740625 L2.52728125,7.32740625 C1.7744375,7.32740625 1.16195313,6.71492187 1.16195313,5.96207812 L1.16195313,2.54875 C1.16195313,1.79590625 1.7744375,1.18342187 2.52728125,1.18342187 L5.94060938,1.18342187 Z M5.94060938,2.32117187 L2.52728125,2.32117187 C2.40179688,2.32117187 2.29973438,2.42325 2.29973438,2.54871875 L2.29973438,5.96204687 C2.29973438,6.08753125 2.4018125,6.18959375 2.52728125,6.18959375 L5.94060938,6.18959375 C6.06609375,6.18959375 6.16815625,6.08751562 6.16815625,5.96204687 L6.16815625,2.54871875 C6.16815625,2.42323437 6.06607813,2.32117187 5.94060938,2.32117187 Z M14.2464062,4.84703125 C14.5605937,4.84703125 14.8152969,5.10173438 14.8152969,5.41592188 C14.8152969,5.73010938 14.5605937,5.9848125 14.2464062,5.9848125 L9.2401875,5.9848125 C8.926,5.9848125 8.67129687,5.73010938 8.67129687,5.41592188 C8.67129687,5.10173438 8.926,4.84703125 9.2401875,4.84703125 L14.2464062,4.84703125 Z M14.2464062,2.52596875 C14.5605937,2.52596875 14.8152969,2.78067187 14.8152969,3.09485937 C14.8152969,3.40904687 14.5605937,3.66375 14.2464062,3.66375 L9.2401875,3.66375 C8.926,3.66375 8.67129687,3.40904687 8.67129687,3.09485937 C8.67129687,2.78067187 8.926,2.52596875 9.2401875,2.52596875 L14.2464062,2.52596875 Z" id="形状结合"></path>
                </g>
            </g>
        </g>
    </g>
</svg>