<?xml version="1.0" encoding="UTF-8"?>
<svg width="20px" height="20px" viewBox="0 0 20 20" version="1.1" xmlns="http://www.w3.org/2000/svg" xmlns:xlink="http://www.w3.org/1999/xlink">
            <path d="M18.7923828,10.9658203 C19.4412109,10.9658203 19.9669922,11.4917969 19.9669922,12.1404297 L19.9669922,12.1404297 L19.9669922,18.7958984 C19.9669922,19.4447266 19.4412109,19.9705078 18.7923828,19.9705078 L18.7923828,19.9705078 L12.1369141,19.9705078 C11.4882813,19.9705078 10.9623047,19.4447266 10.9623047,18.7958984 L10.9623047,18.7958984 L10.9623047,12.1404297 C10.9623047,11.4917969 11.4882813,10.9658203 12.1369141,10.9658203 L12.1369141,10.9658203 Z M7.83027344,10.9658203 C8.47890625,10.9658203 9.0046875,11.4917969 9.00449224,12.1404297 L9.00449224,12.1404297 L9.00449224,18.7958984 C9.00449224,19.4447266 8.47871094,19.9705078 7.83007813,19.9705078 L7.83007813,19.9705078 L1.17441406,19.9705078 C0.52578125,19.9705078 1.0658141e-14,19.4447266 1.0658141e-14,18.7958984 L1.0658141e-14,18.7958984 L1.0658141e-14,12.1404297 C1.0658141e-14,11.4917969 0.52578125,10.9658203 1.17441406,10.9658203 L1.17441406,10.9658203 Z M18.7923828,12.1404297 L12.1369141,12.1404297 L12.1369141,18.7960938 L18.7923828,18.7960938 L18.7923828,12.1404297 Z M7.83007813,12.1404297 L1.17441406,12.1404297 L1.17441406,18.7960938 L7.83007813,18.7960938 L7.83007813,12.1404297 Z M6.26425781,13.5107422 C6.65585938,13.5107422 6.8515625,13.7064453 6.8515625,14.0980469 C6.8515625,14.4896484 6.65585938,14.6853516 6.26425781,14.6853516 L2.740625,14.6853516 C2.34921875,14.6853516 2.15332031,14.4896484 2.15332031,14.0980469 C2.15332031,13.7064453 2.34921875,13.5107422 2.740625,13.5107422 L6.26425781,13.5107422 Z M17.2263672,13.5107422 C17.6179687,13.5107422 17.8136719,13.7064453 17.8136719,14.0980469 C17.8136719,14.4896484 17.6179687,14.6853516 17.2263672,14.6853516 L13.7029297,14.6853516 C13.3113281,14.6853516 13.115625,14.4896484 13.115625,14.0980469 C13.115625,13.7064453 13.3113281,13.5107422 13.7029297,13.5107422 L17.2263672,13.5107422 Z M13.3111328,0.0037109375 C13.9597656,0.0037109375 14.4857422,0.529492188 14.4857422,1.178125 L14.4857422,1.178125 L14.4857422,7.83398438 C14.4857422,8.48261719 13.9597656,9.00839844 13.3111328,9.00839844 L13.3111328,9.00839844 L6.65566406,9.00839844 C6.00703125,9.00839844 5.48105469,8.48261719 5.48105469,7.83378906 L5.48105469,7.83378906 L5.48105469,1.178125 C5.48105469,0.529492188 6.00683594,0.0037109375 6.65566406,0.0037109375 L6.65566406,0.0037109375 Z M13.3111328,1.178125 L6.65566406,1.178125 L6.65566406,7.83378906 L13.3111328,7.83378906 L13.3111328,1.178125 Z M11.7453125,2.5484375 C12.1369141,2.5484375 12.3326172,2.74433594 12.3326172,3.13574219 C12.3326172,3.52734375 12.1369141,3.72304688 11.7453125,3.72304688 L8.22167969,3.72304688 C7.83007813,3.72304688 7.634375,3.52714844 7.634375,3.13574219 C7.634375,2.74433594 7.83007813,2.5484375 8.22167969,2.5484375 L11.7453125,2.5484375 Z"></path>

</svg>