<?xml version="1.0" standalone="no"?><!DOCTYPE svg PUBLIC "-//W3C//DTD SVG 1.1//EN" "http://www.w3.org/Graphics/SVG/1.1/DTD/svg11.dtd"><svg t="1625705813741" class="icon" viewBox="0 0 1024 1024" version="1.1" xmlns="http://www.w3.org/2000/svg" p-id="4249" xmlns:xlink="http://www.w3.org/1999/xlink" width="200" height="200"><defs><style type="text/css"></style></defs><path d="M739.328 101.9904a182.784 182.784 0 0 1 182.5792 182.6304v454.656c0.1024 48.64-18.944 94.5152-53.504 129.1264a181.504 181.504 0 0 1-129.024 53.6064H284.672a182.784 182.784 0 0 1-182.6304-182.6304V284.672A182.784 182.784 0 0 1 284.672 101.9904h454.656z m0 69.9904H284.5696c-62.1056 0-112.64 50.5344-112.64 112.64v454.7584c0 62.1056 50.5344 112.64 112.64 112.64h454.7584c29.9008 0 58.2144-11.776 79.5136-33.1264 21.2992-21.4016 33.024-49.6128 33.024-79.5136V284.672c0-62.1056-50.5344-112.64-112.64-112.64zM352.4608 267.3152l96.8704 96.8704a35.072 35.072 0 0 1 0 49.6128l-96.8704 96.768a35.1232 35.1232 0 0 1-49.6128-0.0512 35.0208 35.0208 0 0 1 0-49.5104l72.0896-72.0896-71.9872-72.1408a34.9696 34.9696 0 1 1 49.5104-49.4592zM696.32 450.816a35.0208 35.0208 0 0 1 0 69.9904h-173.7216a35.0208 35.0208 0 0 1 0-69.9904H696.32z" p-id="4250" fill="#ffffff"></path></svg>