<?xml version="1.0" standalone="no"?><!DOCTYPE svg PUBLIC "-//W3C//DTD SVG 1.1//EN" "http://www.w3.org/Graphics/SVG/1.1/DTD/svg11.dtd"><svg t="1625556871179" class="icon" viewBox="0 0 1024 1024" version="1.1" xmlns="http://www.w3.org/2000/svg" p-id="2780" xmlns:xlink="http://www.w3.org/1999/xlink" width="200" height="200"><defs><style type="text/css"></style></defs><path d="M510.82 1024a107.96 107.96 0 0 1-47.956-14.655L30.532 801.728C6.35 788.049 0 738.873 0 712.004v-4.315l3.664 2.28c27.682 16.854 65.542 35.254 67.496 35.987l-0.407 1.303 0.651-1.222 440.637 216.98 440.555-216.98c1.466-0.651 19.052-10.014 36.068-19.133L1024 708.341v3.99c0 28.821-8.142 78.65-30.45 89.56l-432.414 207.698A122.86 122.86 0 0 1 510.819 1024z m0-217.469a107.065 107.065 0 0 1-47.956-14.736L30.532 584.259C6.35 570.58 0 521.079 0 494.536v-4.315l3.664 2.198c27.275 16.69 65.135 35.335 67.496 36.15l-0.407 1.302 0.651-1.22 440.637 216.898L952.596 528.65c1.547-0.733 21.657-11.561 41.198-21.983L1024 490.383v4.071c0 28.822-8.142 78.65-30.45 89.56L561.135 791.877a122.86 122.86 0 0 1-50.317 14.655z m0-217.468a107.065 107.065 0 0 1-47.956-14.737L30.532 366.383a56.993 56.993 0 0 1-26.38-47.955 66.763 66.763 0 0 1 26.054-58.459L462.783 16.284A109.996 109.996 0 0 1 514.158 0a86.385 86.385 0 0 1 47.63 16.284l431.517 243.604c16.284 9.607 26.298 31.997 25.484 56.993-0.814 23.204-10.584 42.256-25.565 49.746l-432.088 207.78a122.86 122.86 0 0 1-50.317 14.656z m1.22-79.628l436.322-196.462-433.634-249.06h-1.792l-1.302-1.302L75.638 312.973z" fill="#FFFFFF" p-id="2781"></path></svg>