<?xml version="1.0" standalone="no"?><!DOCTYPE svg PUBLIC "-//W3C//DTD SVG 1.1//EN" "http://www.w3.org/Graphics/SVG/1.1/DTD/svg11.dtd"><svg t="1626161775304" class="icon" viewBox="0 0 1024 1024" version="1.1" xmlns="http://www.w3.org/2000/svg" p-id="4021" xmlns:xlink="http://www.w3.org/1999/xlink" width="200" height="200"><defs><style type="text/css"></style></defs><path d="M43.707 437.073v-16.858c6.244-7.493 11.864-16.235 19.356-22.478C211.043 279.102 358.4 161.093 506.38 43.083h16.235c8.117 6.244 16.234 11.239 23.726 17.483 137.366 111.766 274.732 224.156 411.474 335.922 8.117 6.868 14.36 15.61 21.853 23.102v16.859c-22.478 31.22-25.6 31.844-76.8 3.746v31.22c0 130.497-1.873 260.37 0.625 390.244 1.248 58.692-16.234 101.15-74.303 118.01H188.566c-54.322-22.479-69.932-64.937-68.683-122.381 2.497-129.249 0.624-258.498 0.624-387.122v-31.22c-53.073 27.474-53.697 27.474-76.8-1.873z m470.79-317.19C407.103 206.049 301.58 290.34 196.684 375.259c-6.868 5.619-11.24 18.107-11.24 27.473-0.623 158.595 0 317.814-0.623 475.785 0 23.103 8.741 34.342 31.219 34.342h591.298c21.853 0 32.468-9.366 32.468-33.093-0.625-159.844 0-319.064-0.625-478.907 0-8.742-4.37-20.605-10.614-25.6-103.649-85.542-208.546-169.835-314.068-255.376z" p-id="4022" fill="#ffffff"></path><path d="M505.132 493.893H319.688c-31.844 0-46.83-10.615-46.83-31.844-0.624-22.478 16.235-34.342 48.703-34.342h365.268c5.62 0 10.615-0.624 16.234 0 19.357 2.498 33.093 12.488 33.093 32.469 0 21.853-13.736 33.092-34.966 33.092-65.56 0.625-130.497 0-196.058 0.625 0-0.625 0 0 0 0z m-0.625 91.785h188.566c28.722 0 44.332 12.488 44.332 32.468 0 20.605-16.234 33.093-44.332 33.093H316.566c-28.722 0-43.707-12.488-43.707-33.093 0-21.853 14.36-32.468 43.707-33.092 62.439 0.624 125.502 0.624 187.941 0.624z m-0.624 224.156h-190.44c-27.472 0-41.209-11.863-39.96-32.468 1.873-24.351 17.483-31.844 38.712-31.844h384c26.225 0 42.459 13.112 40.585 33.093-2.497 25.6-19.356 31.844-41.834 31.844-63.687-1.25-127.375-0.625-191.063-0.625z" p-id="4023" fill="#ffffff"></path></svg>