<?xml version="1.0" standalone="no"?><!DOCTYPE svg PUBLIC "-//W3C//DTD SVG 1.1//EN" "http://www.w3.org/Graphics/SVG/1.1/DTD/svg11.dtd"><svg class="icon" width="32px" height="32.00px" viewBox="0 0 1024 1024" version="1.1" xmlns="http://www.w3.org/2000/svg"><path d="M908.249869 570.48779l95.358441 53.595153c18.739117 11.512085 25.77428 34.408344 14.070327 52.763725l-107.701955 183.553807a37.094498 37.094498 0 0 1-23.407907 18.35538h-11.703954a44.769221 44.769221 0 0 1-18.739116-4.604834l-94.143277-52.891637c-30.698895 23.983511-65.235151 43.618013-102.45756 57.880208v105.143713c0 20.657798-18.675161 39.013178-39.780651 39.013179H402.101846c-21.10549 0-39.780651-18.355381-39.780651-39.013179v-106.039098a399.469365 399.469365 0 0 1-100.794703-57.560427l-93.503717 53.467241c-7.035163 2.302417-14.070327 4.604834-21.10549 4.604834-14.006371 0-25.710324-6.907251-35.047904-18.35538l-107.637999-183.553807a42.786584 42.786584 0 0 1 16.372744-55.066142l95.038661-53.403285a394.22497 394.22497 0 0 1 0.63956-113.138218l-95.678221-53.723065c-18.739117-11.512085-25.77428-34.408344-14.070327-52.763725l107.701955-183.553807a37.734058 37.734058 0 0 1 53.787021-16.052964l98.236463 55.130099c29.099994-22.192742 61.397789-40.548123 96.061957-54.29867V39.013178c0-20.657798 18.675161-39.013178 39.780651-39.013178h217.642371c21.10549 0 39.780651 18.355381 39.780651 39.013178V149.01755c36.263069 14.070327 69.967897 33.257136 100.155143 56.537131l96.445694-54.170757a45.408781 45.408781 0 0 1 30.44307-4.604835 37.094498 37.094498 0 0 1 23.407907 18.355381l107.701955 183.553807c11.703954 18.355381 4.66879 41.315596-14.070327 52.763725l-95.678221 53.723065a389.364312 389.364312 0 0 1 0.31978 115.312723z m-396.143651 115.50459c95.934045 0 175.559303-78.026357 175.559303-172.041721 0-94.07932-79.625258-172.041721-175.559303-172.041721S336.482959 419.807382 336.482959 513.886703c0 94.015364 77.258885 172.041721 175.559303 172.041721z" /></svg>