<?xml version="1.0" encoding="UTF-8"?>
<svg width="20px" height="20px" viewBox="0 0 20 20" version="1.1" xmlns="http://www.w3.org/2000/svg" xmlns:xlink="http://www.w3.org/1999/xlink">
            <path d="M15.0073684,1.41789475 C15.5400505,1.40808385 16.0538093,1.61536828 16.4305363,1.9920953 C16.8072633,2.36882231 17.0145477,2.88258105 17.0047368,3.41526316 L17.0047368,14.5315789 C17.0047368,14.7321455 16.9160507,14.9119983 16.7757542,15.0340615 L16.7014767,15.0895793 C16.6232417,15.1404644 16.5336489,15.1753572 16.4373329,15.1896232 L16.3389474,15.1973684 L5.48684211,15.1973684 C4.78921927,15.1973684 4.22368422,15.7629035 4.22368422,16.4605263 C4.21274052,16.7987729 4.34230531,17.1264599 4.58160693,17.3657615 C4.82090855,17.6050631 5.1485955,17.7346279 5.48684211,17.7236842 L16.3389474,17.7236842 C16.518409,17.713669 16.6936368,17.7805922 16.8207329,17.9076882 C16.9478289,18.0347842 17.014752,18.210012 17.0047368,18.3894737 C17.0051561,18.566471 16.935246,18.7363854 16.8103862,18.8618374 C16.6855263,18.9872895 16.5159446,19.0580028 16.3389474,19.0584211 L5.48684211,19.0584211 C4.05377786,19.0563918 2.89255553,17.8951695 2.89052631,16.4621053 L2.89,3.41526316 C2.8801891,2.88258105 3.08747354,2.36882231 3.46420055,1.9920953 C3.84092757,1.61536828 4.3546863,1.40808385 4.88736842,1.41789475 L15.0073684,1.41789475 Z M15.0073684,2.74947369 L4.88736842,2.74947369 C4.70790676,2.73945848 4.53267893,2.80638167 4.40558293,2.93347767 C4.27848692,3.06057368 4.21156374,3.23580151 4.22157895,3.41526316 L4.22085283,14.1793697 C4.60515216,13.9691675 5.04073519,13.8591314 5.48684211,13.8657895 L15.6730176,13.8655617 L15.6731579,3.41526316 C15.6831731,3.23580151 15.6162499,3.06057368 15.4891539,2.93347767 C15.3620579,2.80638167 15.1868301,2.73945848 15.0073684,2.74947369 Z M13.4089474,10.8026316 C13.588409,10.7926164 13.7636368,10.8595396 13.8907329,10.9866356 C14.0178289,11.1137316 14.084752,11.2889594 14.0747368,11.4684211 C14.0738687,11.8357663 13.7762926,12.1333424 13.4089474,12.1342105 L6.68473684,12.1342105 C6.31703146,12.1342105 6.01894736,11.8361264 6.01894736,11.4684211 C6.01894736,11.1007157 6.31703146,10.8026316 6.68473684,10.8026316 L13.4089474,10.8026316 Z M13.4089474,8.13947369 C13.588409,8.12945848 13.7636368,8.19638167 13.8907329,8.32347767 C14.0178289,8.45057368 14.084752,8.62580151 14.0747368,8.80526316 C14.0738687,9.17260836 13.7762926,9.47018455 13.4089474,9.47105264 L6.68473684,9.47105264 C6.31703146,9.47105264 6.01894736,9.17296854 6.01894736,8.80526316 C6.01894736,8.43755779 6.31703146,8.13947369 6.68473684,8.13947369 L13.4089474,8.13947369 Z M13.4089474,5.47631578 C13.588409,5.46630057 13.7636368,5.53322376 13.8907329,5.66031976 C14.0178289,5.78741577 14.084752,5.9626436 14.0747368,6.14210525 C14.0738688,6.50945046 13.7762926,6.80702666 13.4089474,6.80789475 L6.68473684,6.80789475 C6.31703146,6.80789475 6.01894735,6.50981064 6.01894735,6.14210526 C6.01894735,5.77439989 6.31703146,5.47631578 6.68473684,5.47631578 L13.4089474,5.47631578 Z"></path>
</svg>