<?xml version="1.0" encoding="UTF-8"?>
<svg width="20px" height="20px" viewBox="0 0 20 20" version="1.1" xmlns="http://www.w3.org/2000/svg" xmlns:xlink="http://www.w3.org/1999/xlink">
            <path d="M16.7859931,9.41979964 C16.6244046,12.0608991 15.0305172,14.3031253 12.7922754,15.3388827 C12.6814596,16.8791642 11.4033852,18.0538459 9.8990055,17.9980953 C8.39462577,17.9423446 7.20248542,16.6761194 7.20027014,15.1316492 C7.19952035,13.8035345 8.08627649,12.6480504 9.34480743,12.3372188 C10.6033384,12.0263872 11.9054723,12.64126 12.4938965,13.824231 C13.9940081,13.0117015 15.029158,11.5168596 15.2832993,9.79610295 C15.8049225,9.78437978 16.3177617,9.655955 16.7859931,9.41979964 Z M11.5635622,15.4816379 L11.5711617,15.441884 L11.5789611,15.3976673 L11.5789611,15.3976673 L11.585,15.355 L11.5855607,15.3528351 L11.586,15.341 L11.587,15.341 L11.587,15.338 L11.586,15.341 L11.5963599,15.2433193 C11.5987597,15.2064379 11.5999597,15.1691974 11.5999597,15.1316492 L11.5971599,15.0331619 L11.593,14.983 L11.593,14.979 L11.5914002,14.9604579 L11.5914002,14.9604579 L11.59,14.951 L11.5887605,14.9346747 C11.579731,14.8580898 11.5654296,14.7822567 11.5459635,14.7077437 L11.54,14.687 L11.533,14.663 L11.525,14.636 L11.5203653,14.6186948 L11.5203653,14.6186948 L11.517,14.61 L11.5131934,14.5969282 L11.5131934,14.5969282 L11.504,14.572 L11.4975669,14.5526263 L11.4975669,14.5526263 L11.495,14.548 L11.453475,14.4447902 C11.4375326,14.4094078 11.4203552,14.3746112 11.4019737,14.3404683 L11.4155727,14.3663212 L11.3952704,14.3278728 L11.3952704,14.3278728 L11.374,14.291 L11.398,14.335 L11.3264693,14.2135431 C11.0309476,13.7638693 10.5349297,13.4900708 10.0000727,13.4901951 C9.20582792,13.490335 8.53192924,14.0882653 8.4172309,14.8946038 C8.30253256,15.7009422 8.78176449,16.4715347 9.54284276,16.7045583 C10.303921,16.9375819 11.116396,16.5624786 11.4511702,15.823522 L11.4659691,15.7898722 L11.4979669,15.7106721 C11.5237254,15.6402935 11.5447073,15.5681709 11.5607624,15.4948209 L11.562,15.484 L11.563,15.482 L11.5635622,15.4816379 Z M4.80044023,3.23110769 C5.81749016,3.23157929 6.75430459,3.79787443 7.24760063,4.71039222 C7.74089668,5.62291 7.71308344,6.73811984 7.1749465,7.62355973 C6.63680955,8.50899963 5.67299284,9.0253981 4.65725033,8.97250341 L4.65725033,8.97619668 C4.65725033,10.7842583 5.51079,12.3879588 6.82709699,13.3863732 C6.5833613,13.854283 6.44015785,14.3703363 6.40712668,14.8997938 C4.48166275,13.6678826 3.20055329,11.4753104 3.20055329,8.97619668 C3.20055329,8.80712693 3.20655286,8.63969862 3.21775208,8.4735014 C2.20519156,7.76186705 1.76242443,6.45658531 2.12556798,5.25373216 C2.48871152,4.05087902 3.57309418,3.23091505 4.80044023,3.23110769 Z M10,7 C11.1045695,7 12,7.8954305 12,9 C12,10.1045695 11.1045695,11 10,11 C8.8954305,11 8,10.1045695 8,9 C8,7.8954305 8.8954305,7 10,7 Z M10.0000727,2.00000858 C11.5587626,2.00000858 12.9950611,2.53800377 14.14178,3.44326564 C15.436148,2.90111138 16.9219456,3.42170197 17.62271,4.66290641 C18.3234744,5.90411084 18.024397,7.4854571 16.9220308,8.36768785 C15.8196647,9.2499186 14.2519231,9.16259965 13.2491224,8.16311682 C12.2463217,7.16363399 12.115855,5.55836329 12.9434647,4.40228514 C12.0709665,3.8087586 11.046929,3.49309446 10.0000727,3.49497145 C9.19932934,3.49497145 8.44018298,3.67553139 7.75823119,3.99971855 C7.46099807,3.55968995 7.07426566,3.19105118 6.62471129,2.91923145 C7.65204531,2.31506239 8.81593636,1.99809924 10.0000727,2.00000858 Z M3.6038771,5.01398562 C3.11534359,5.57865792 3.06526784,6.4124183 3.48253336,7.03435662 L3.53772946,7.11232567 C3.55372832,7.13284386 3.5697272,7.15336202 3.58652601,7.17305949 L3.58772593,7.17429058 L3.61572394,7.20711964 L3.59332554,7.18044603 L3.62892301,7.22148237 L3.67291991,7.26785345 L3.67291991,7.26785345 L3.67691962,7.27236744 L3.68611898,7.28139545 L3.69651825,7.29165453 L3.72131648,7.31545561 L3.7309158,7.32407324 L3.75531409,7.34623287 L3.76251358,7.3527987 L3.78131224,7.36880287 L3.79011163,7.37618942 L3.816,7.397 L3.80771038,7.3909625 L3.81930956,7.40040085 L3.82490917,7.4045045 L3.833,7.411 L3.84890748,7.42338121 L3.90250368,7.46195538 L3.90290366,7.46236575 L3.90410358,7.46318647 L3.91810257,7.47303519 L3.92970176,7.48042173 L3.95889969,7.49970882 L3.948,7.492 L3.98129811,7.51366118 L4.01289587,7.53253791 L4.03889404,7.54772135 L4.05369299,7.55551825 L4.07249167,7.56577735 L4.10528934,7.58219189 L4.12608789,7.59245097 L4.13048756,7.59450279 L4.13568721,7.59696497 L4.17168466,7.61337951 L4.18568366,7.61953496 L4.19528298,7.62322823 L4.20968197,7.62938368 L4.238,7.64 L4.228,7.636 L4.31507453,7.66826564 C4.34527239,7.67811436 4.37587023,7.68703977 4.40686804,7.69504185 L4.50086139,7.71638075 L4.57285631,7.72869166 L4.61205354,7.73361602 L4.62205283,7.73484711 L4.62365271,7.73484711 L4.62685249,7.73525746 L4.63365201,7.73648856 L4.6548505,7.73813002 L4.63565186,7.7360782 L4.66005015,7.73895074 L4.66804957,7.73936111 L4.69444771,7.74141292 L4.69524766,7.74141292 L4.70764677,7.74223365 L4.71244643,7.74223365 L4.77564197,7.74428547 L4.80044023,7.74510619 C5.53635825,7.74510619 6.17734075,7.22999856 6.35367119,6.49695458 C6.53000164,5.7639106 6.19619351,5.00200326 5.54478621,4.65069812 C4.89337892,4.29939297 4.09241061,4.44931333 3.6038771,5.01398562 Z M15.1997053,4.46219822 L15.1837064,4.46219822 L15.1101116,4.4646604 L15.0889131,4.46589149 C15.0556196,4.46824889 15.0224058,4.47167024 14.9893201,4.47615057 L14.949323,4.48189566 L14.9193251,4.48723038 L14.9101257,4.48887183 L14.9049261,4.49010292 L14.9001264,4.49092366 L14.883,4.494 L14.8513299,4.50118274 L14.8289315,4.50651747 L14.8449303,4.50241383 L14.8249317,4.50692783 L14.8169323,4.50939001 L14.8049332,4.51226255 L14.7981336,4.51431437 L14.8293314,4.5061071 C14.800862,4.51310058 14.7725865,4.52090047 14.7445374,4.52949782 L14.747,4.528 L14.736938,4.53196 L14.7057402,4.54180872 L14.6677429,4.55535072 C14.6150648,4.57429418 14.5633968,4.59607367 14.5129538,4.62059851 L14.5257529,4.61444306 L14.509754,4.6218296 L14.5021546,4.62552288 L14.4997547,4.62675397 L14.4937551,4.63044724 L14.4797561,4.63742342 L14.4505582,4.65301724 L14.4489583,4.6534276 L14.4125609,4.67394578 L14.433,4.662 L14.3917624,4.68625669 L14.3753635,4.69651577 L14.3393661,4.71949613 L14.3285668,4.7264723 L14.3109681,4.7387832 L14.3009688,4.74534903 L14.2685711,4.76873975 L14.2437728,4.78720611 L14.2365733,4.79295118 C14.1857769,4.83234608 14.1373803,4.87461351 14.0913836,4.9197535 L14.0629856,4.94847896 L14.0421871,4.97022821 L14.0357875,4.97761476 L14.0281881,4.98541168 L14.0093894,5.00675057 L13.9949904,5.02316511 L13.9921906,5.02644802 L13.9841912,5.03629674 L13.958593,5.06789474 L13.944194,5.08554036 L13.9337947,5.09990309 L13.9325948,5.10154454 L13.9073966,5.13560472 L13.9001971,5.14627416 L13.8542003,5.21521522 C13.4583897,5.84610511 13.5299011,6.67204582 14.0279058,7.22147405 C14.5259105,7.77090227 15.3236337,7.90395254 15.9656225,7.54466101 C16.6076114,7.18536948 16.9304377,6.42519938 16.7497868,5.6981629 C16.5691358,4.97112642 15.9309951,4.46230196 15.1997053,4.46219822 Z"></path>

</svg>