<?xml version="1.0" encoding="UTF-8"?>
<svg width="20px" height="20px" viewBox="0 0 20 20" version="1.1" xmlns="http://www.w3.org/2000/svg" xmlns:xlink="http://www.w3.org/1999/xlink">
            <path d="M4.4,7.035 L4.4,10 L6.5,10 C8.0463973,10 9.3,11.10612 9.3,12.4705882 L9.3,15.7647059 L10.7,15.7647059 L10.7,12.4705882 C10.7,11.10612 11.9536027,10 13.5,10 L15.6,10 L15.6,7.035 L17,7.035 L17,10 C17,10.6822341 16.3731986,11.2352941 15.6,11.2352941 L13.5,11.2352941 C12.7268014,11.2352941 12.1,11.7883541 12.1,12.4705882 L12.1,15.7647059 C12.1,16.44694 11.4731986,17 10.7,17 L9.3,17 C8.52680135,17 7.9,16.44694 7.9,15.7647059 L7.9,12.4705882 C7.9,11.7883541 7.27319865,11.2352941 6.5,11.2352941 L4.4,11.2352941 C3.62680135,11.2352941 3,10.6822341 3,10 L3,7.035 L4.4,7.035 Z M17,7 L3,7 L3,4.23529412 C3,3.55306001 3.62680135,3 4.4,3 L15.6,3 C16.3731986,3 17,3.55306001 17,4.23529412 L17,7 Z M15.6,4.23529412 L4.4,4.23529412 L4.4,6 L15.6,6 L15.6,4.23529412 Z"></path>
</svg>