<?xml version="1.0" encoding="UTF-8"?>
<svg width="20px" height="20px" viewBox="0 0 20 20" version="1.1" xmlns="http://www.w3.org/2000/svg" xmlns:xlink="http://www.w3.org/1999/xlink">
            <path d="M15.0097656,10.4824219 C17.0644531,10.4824219 18.7363281,12.1542969 18.7363281,14.2089844 C18.7363281,16.2636719 17.0644531,17.9355469 15.0117187,17.9355469 L5.04101562,17.9355469 C2.98632813,17.9355469 1.31445312,16.2636719 1.31445312,14.2089844 C1.31445312,12.1542969 2.98632812,10.4824219 5.04101562,10.4824219 L15.0097656,10.4824219 Z M15.0097656,12.2265625 L5.04101562,12.2265625 C3.94726562,12.2265625 3.05664062,13.1171875 3.05664062,14.2109375 C3.05664062,15.3046875 3.94726562,16.1953125 5.04101562,16.1953125 L15.0097656,16.1953125 C16.1035156,16.1953125 16.9941406,15.3046875 16.9941406,14.2109375 C16.9941406,13.1171875 16.1035156,12.2265625 15.0097656,12.2265625 Z M14.9316406,13.0058594 C15.5961082,13.0058594 16.1347656,13.5445168 16.1347656,14.2089844 C16.1347656,14.873452 15.5961082,15.4121094 14.9316406,15.4121094 C14.267173,15.4121094 13.7285156,14.873452 13.7285156,14.2089844 C13.7285156,13.5445168 14.267173,13.0058594 14.9316406,13.0058594 Z M15.0097656,1.99609375 C17.0644531,1.99609375 18.7363281,3.66796875 18.7363281,5.72265625 C18.7363281,7.77734375 17.0644531,9.44921875 15.0117187,9.44921875 L5.04101562,9.44921875 C2.98632813,9.44921875 1.31445312,7.77734375 1.31445312,5.72265625 C1.31445312,3.66796875 2.98632812,1.99609375 5.04101562,1.99609375 L15.0097656,1.99609375 Z M15.0097656,3.74023437 L5.04101562,3.74023437 C3.94726562,3.74023437 3.05664062,4.63085937 3.05664062,5.72460938 C3.05664062,6.81835938 3.94726562,7.70898438 5.04101562,7.70898438 L15.0097656,7.70898438 C16.1035156,7.70898438 16.9941406,6.81835938 16.9941406,5.72460938 C16.9941406,4.63085938 16.1035156,3.74023437 15.0097656,3.74023437 Z M5.08398438,4.51367187 C5.74845196,4.51367187 6.28710938,5.05232929 6.28710938,5.71679687 C6.28710938,6.38126446 5.74845196,6.91992187 5.08398438,6.91992187 C4.41951679,6.91992187 3.88085938,6.38126446 3.88085938,5.71679687 C3.88085938,5.05232929 4.41951679,4.51367187 5.08398438,4.51367187 Z"></path>
</svg>