<?xml version="1.0" encoding="UTF-8"?>
<svg width="20px" height="20px" viewBox="0 0 20 20" version="1.1" xmlns="http://www.w3.org/2000/svg" xmlns:xlink="http://www.w3.org/1999/xlink">
            <path d="M14.5,2 L19,10 L14.5,18 L5.5,18 L1,10 L5.5,2 L14.5,2 Z M11.4760647,6.34107115 C10.0347491,5.72807709 8.37572323,6.06691177 7.2725881,7.1995771 C6.16945298,8.33224244 5.83945221,10.0356794 6.43646464,11.515578 C7.03347708,12.9954765 8.43993134,13.960396 10,13.960396 C12.1302412,13.960396 13.8571428,12.1872663 13.8571428,10 C13.8571428,8.39816932 12.9173802,6.95406521 11.4760647,6.34107115 Z M10.7453738,8.19178536 C11.4732275,8.50134283 11.9478008,9.23060475 11.9478008,10.0395174 C11.9478008,11.1440708 11.0757282,12.0394882 9.99997209,12.0394882 C9.21214893,12.0394882 8.50189991,11.552211 8.20041304,10.8048731 C7.89892616,10.0575352 8.06557412,9.19731216 8.62264921,8.62532453 C9.17972431,8.0533369 10.0175201,7.88222788 10.7453738,8.19178536 Z"></path>
</svg>