<?xml version="1.0" encoding="UTF-8"?>
<svg width="20px" height="20px" viewBox="0 0 20 20" version="1.1" xmlns="http://www.w3.org/2000/svg" xmlns:xlink="http://www.w3.org/1999/xlink">
            <path d="M7.72222223,2.88888889 C7.90691641,2.88888889 8.0824583,2.92807452 8.24098761,2.99858551 L15.1920121,5.02033359 C15.9026368,5.13834938 16.4444445,5.75590171 16.4444445,6.5 C16.4444445,6.99126124 16.2082827,7.42736395 15.843295,7.70097236 L15.8193333,7.72555555 L13.1926667,10.2613333 C13.0216915,10.4282776 12.7493132,10.4301469 12.5760628,10.265565 C12.4028124,10.1009831 12.3907105,9.82886737 12.5486667,9.64955555 L12.5753333,9.62177777 L12.5751111,9.62177777 L14.3720015,7.88689898 C13.9589709,7.71623289 13.63879,7.36643322 13.5082873,6.93432824 L9.82051623,9.97189346 C10.3762008,10.1364578 10.8321113,10.5332699 11.075791,11.0498728 L11.6862222,10.4615555 C11.8574207,10.2959647 12.1287226,10.2947666 12.3013769,10.4588389 C12.4740313,10.6229112 12.4866549,10.8939218 12.33,11.0733333 L12.3035555,11.1011111 L11.2583181,12.1122092 C11.157737,13.1354451 10.2947841,13.9348889 9.24511111,13.9348889 C8.82438288,13.9348889 8.43365225,13.8064539 8.10998749,13.5866523 L8.11024015,15.4596667 L13.5333333,15.46 C13.6656724,15.4599723 13.7896441,15.5187894 13.8732486,15.6179823 L13.9183112,15.6821953 C13.9977242,15.8197206 13.9977242,15.9891683 13.9183112,16.1266936 C13.8521336,16.2412979 13.7391888,16.3192205 13.6114767,16.3419919 L13.5333333,16.3488889 L3.86977777,16.3488889 C3.71097088,16.3489222 3.56421301,16.2642188 3.48479995,16.1266936 C3.40538689,15.9891683 3.40538689,15.8197206 3.48479995,15.6821953 C3.5509775,15.5675909 3.66392228,15.4896684 3.79163441,15.466897 L3.86977777,15.46 L7.22124015,15.4596667 L7.22222223,11.9117778 C7.22211111,11.2223499 7.567094,10.613386 8.09387704,10.2481799 L8.13088889,10.2124445 L11.9922402,7.03166666 L8.31424015,5.73066666 L7.216,7.76577777 C7.12272823,7.9385388 6.92958154,8.0267597 6.74272171,7.99146753 L6.72524015,7.98566666 L6.24088889,9.27688889 C6.19614859,9.40317446 6.09748061,9.50112055 5.97414557,9.54605808 L5.89741859,9.56646221 C5.73898087,9.59375901 5.5781531,9.53336269 5.47684766,9.40852345 C5.39580331,9.30865207 5.36296233,9.1799947 5.38344689,9.05602232 L5.40888889,8.96444445 L5.89424015,7.66866666 L5.86422223,7.65688889 C5.6792547,7.58481978 5.56776175,7.40097391 5.58232971,7.20938929 L5.59644445,7.12711111 L6.44533334,3.97933334 L6.46940856,3.91406551 C6.58665561,3.329355 7.10300073,2.88888889 7.72222223,2.88888889 Z M9.24511111,10.7777778 C8.61875884,10.7777778 8.111,11.2855366 8.111,11.9118889 C8.111,12.5382412 8.61875884,13.046 9.24511111,13.046 C9.87146339,13.046 10.3792222,12.5382412 10.3792222,11.9118889 C10.3792222,11.2855366 9.87146339,10.7777778 9.24511111,10.7777778 Z M14.9444445,5.88888889 C14.8094415,5.88888889 14.6846631,5.93266549 14.5835302,6.00679788 L14.5227646,6.05879891 C14.5109072,6.0804034 14.4972135,6.1010448 14.4817876,6.12051453 L14.4305645,6.169131 C14.3690391,6.26449046 14.3333333,6.37807547 14.3333333,6.5 C14.3333333,6.83750735 14.6069371,7.11111111 14.9444445,7.11111111 C15.2819518,7.11111111 15.5555556,6.83750735 15.5555556,6.5 C15.5555556,6.26416674 15.4219681,6.05953451 15.2263357,5.95764582 L15.0070515,5.89205664 C14.9864675,5.88996197 14.9655813,5.88888889 14.9444445,5.88888889 Z M7.02636948,5.23852842 L6.55844445,6.97377777 L6.62044445,6.99777777 L7.46524015,5.43066666 L7.43311111,5.41911111 C7.28749944,5.37817657 7.14959252,5.31868885 7.02636948,5.23852842 Z M9.00000001,4.16666667 C9.00000001,4.45695665 8.90319796,4.72463729 8.7401132,4.93918929 L12.7922402,6.37166666 L13.7725795,5.56357127 C13.7790983,5.55542414 13.7857003,5.54734647 13.7923842,5.53933955 L8.99984172,4.14634747 C8.99994712,4.15310792 9.00000001,4.15988112 9.00000001,4.16666667 Z M7.72222223,3.77777777 C7.50744483,3.77777777 7.33333334,3.95188926 7.33333334,4.16666666 C7.33333334,4.38144406 7.50744483,4.55555555 7.72222223,4.55555555 C7.93699963,4.55555555 8.11111111,4.38144406 8.11111111,4.16666666 C8.11111111,4.0222614 8.03240358,3.89623927 7.91554754,3.82915928 L7.89266666,3.82444445 C7.84251179,3.79220712 7.78405208,3.77777777 7.72222223,3.77777777 Z"></path>
</svg>