<?xml version="1.0" encoding="UTF-8"?>
<svg width="20px" height="20px" viewBox="0 0 20 20" version="1.1" xmlns="http://www.w3.org/2000/svg" xmlns:xlink="http://www.w3.org/1999/xlink">
            <path d="M14.4394531,1.9921875 C16.40625,1.9921875 18.005867,3.59179688 18.005867,5.55859375 L18.005867,14.4394531 C18.0078125,15.3886719 17.6367188,16.2851562 16.9609375,16.9609375 C16.2871094,17.6347656 15.390625,18.0078125 14.4414063,18.0078125 L5.55859375,18.0078125 C3.59179688,18.0078125 1.9921875,16.4082031 1.9921875,14.4414062 L1.9921875,5.55859375 C1.9921875,3.59179688 3.59179688,1.9921875 5.55859375,1.9921875 L14.4394531,1.9921875 Z M14.4394531,3.359375 L5.55859375,3.359375 C4.34570313,3.359375 3.359375,4.34570312 3.359375,5.55859375 L3.359375,14.4414062 C3.359375,15.6542969 4.34570313,16.640625 5.55859375,16.640625 L14.4414063,16.640625 C15.0253906,16.640625 15.578125,16.4101562 15.9941406,15.9941406 C16.4101563,15.5761719 16.6386719,15.0253906 16.6386719,14.4414062 L16.6386719,5.55859375 C16.6386719,4.34570312 15.6523438,3.359375 14.4394531,3.359375 Z M6.88476562,5.22070312 L8.77734375,7.11328125 C8.90625,7.2421875 8.97851562,7.41601562 8.97851562,7.59765625 C8.97851562,7.77929687 8.90625,7.953125 8.77734375,8.08203125 L6.88476562,9.97265625 C6.75,10.1054688 6.57617187,10.171875 6.40039062,10.171875 C6.22460937,10.171875 6.05078125,10.1054688 5.91601562,9.97070312 C5.6484375,9.703125 5.65039062,9.27148437 5.91601562,9.00390625 L7.32421875,7.59570312 L5.91796875,6.1875 C5.65039062,5.91992188 5.65039062,5.48828125 5.91796875,5.22070312 C6.18554687,4.953125 6.6171875,4.953125 6.88476562,5.22070312 Z M13.5996094,8.8046875 C13.9765625,8.8046875 14.2832031,9.11132812 14.2832031,9.48828125 C14.2832031,9.86523438 13.9765625,10.171875 13.5996094,10.171875 L10.2070312,10.171875 C9.83007812,10.171875 9.5234375,9.86523438 9.5234375,9.48828125 C9.5234375,9.11132812 9.83007812,8.8046875 10.2070312,8.8046875 L13.5996094,8.8046875 Z"></path>
</svg>