<?xml version="1.0" encoding="UTF-8"?>
<svg width="20px" height="20px" viewBox="0 0 20 20" version="1.1" xmlns="http://www.w3.org/2000/svg" xmlns:xlink="http://www.w3.org/1999/xlink">
            <path d="M10.7142557,1.42915104 L11.2497927,3.21436066 C12.2246717,3.39289961 13.1262804,3.77827832 13.9120876,4.31935148 L15.5554734,3.43445145 L16.5655486,4.44452662 L15.6822275,6.08495441 C16.2255191,6.87044186 16.6066207,7.77492861 16.786179,8.75034729 L18.570869,9.28574428 L18.570869,10.7142158 L16.7912355,11.2481338 C16.6126566,12.2248715 16.2245398,13.1266002 15.6810083,13.9127871 L16.5655486,15.5554534 L15.5554734,16.5655486 L13.9104487,15.6797691 C13.1248613,16.2206824 12.2244718,16.6071803 11.2497926,16.7856393 L10.7142557,18.570829 L9.28576424,18.570829 L8.75022732,16.7856393 C7.77530832,16.6071204 6.87373959,16.2217417 6.08793236,15.6806086 L4.44454658,16.5655286 L3.43445143,15.5554334 L4.31777254,13.9150256 C3.77450088,13.1295382 3.39337928,12.2250114 3.213841,11.2496128 L1.42915102,10.7142158 L1.42915102,9.28576426 L3.20874447,8.75188623 C3.38734338,7.77516844 3.77546023,6.87341982 4.31901172,6.08723287 L3.43445145,4.44452662 L4.4445466,3.43445145 L6.08957127,4.32023088 C6.87513865,3.77929764 7.77554818,3.39283965 8.75022734,3.21436066 L9.28576426,1.42915104 L10.7142557,1.42915104 Z M10,5.47650693 C7.50173383,5.47650693 5.47648693,7.50173383 5.47648693,9.99998002 C5.47648693,12.4982262 7.50173381,14.5235131 10,14.5235131 C12.4982462,14.5235131 14.5234731,12.4982462 14.5234731,9.99998002 C14.5234731,7.50171385 12.4982462,5.47650693 10,5.47650693 Z M10,7.14305701 C11.5778302,7.14305701 12.856943,8.42216977 12.856943,10 C12.856943,11.5778302 11.5778302,12.856943 10,12.856943 C8.42214979,12.856943 7.14301703,11.5778302 7.14301703,10 C7.14301703,8.42216977 8.42214979,7.14305701 10,7.14305701 Z"></path>
</svg>