<?xml version="1.0" encoding="UTF-8"?>
<svg width="20px" height="20px" viewBox="0 0 20 20" version="1.1" xmlns="http://www.w3.org/2000/svg" xmlns:xlink="http://www.w3.org/1999/xlink">
            <path d="M16.0416667,1.66666666 C16.3868446,1.66666666 16.6666667,1.94648869 16.6666667,2.29166666 L16.6666667,12.85375 C16.6666667,13.1664905 16.5492957,13.4678436 16.3379167,13.6983333 L12.4595833,17.9283333 C12.2529902,18.1535218 11.9710606,18.2952278 11.6670833,18.3266667 L11.6666667,18.3333333 L3.95833334,18.3333333 C3.61315537,18.3333333 3.33333334,18.0535113 3.33333334,17.7083333 L3.33333334,2.29166666 C3.33333334,1.94648869 3.61315537,1.66666666 3.95833334,1.66666666 L16.0416667,1.66666666 Z M15,2.91666666 L5,2.91666666 C4.78876048,2.91666666 4.61096501,3.07479463 4.58625,3.28458334 L4.58333334,3.33333334 L4.58333334,16.6666667 C4.58333334,16.8779062 4.7414613,17.0557016 4.95125,17.0804167 L5,17.0833333 L10.4166667,17.0833333 L10.4166667,13.125 C10.4166667,12.779822 10.6964887,12.5 11.0416667,12.5 L15.4166667,12.5 L15.4166667,3.33333334 C15.4166667,3.22282647 15.372768,3.11684567 15.2946278,3.03870551 C15.2164877,2.96056535 15.1105069,2.91666666 15,2.91666666 Z M14.6633333,13.75 L12.0833333,13.75 C11.8720938,13.75 11.6942984,13.908128 11.6695833,14.1179167 L11.6666667,14.1666667 L11.6670833,17.0470833 C11.7053944,17.0301481 11.7409328,17.0075327 11.7725,16.98 L11.8083333,16.9441667 L14.6633333,13.75 Z M9.79166666,10.4166667 C10.1368446,10.4166667 10.4166667,10.6964887 10.4166667,11.0416667 C10.4166667,11.3868446 10.1368446,11.6666667 9.79166666,11.6666667 L6.875,11.6666667 C6.52982203,11.6666667 6.25,11.3868446 6.25,11.0416667 C6.25,10.6964887 6.52982203,10.4166667 6.875,10.4166667 L9.79166666,10.4166667 Z M13.125,7.5 C13.470178,7.5 13.75,7.77982203 13.75,8.125 C13.75,8.47017797 13.470178,8.75 13.125,8.75 L6.875,8.75 C6.52982203,8.75 6.25,8.47017797 6.25,8.125 C6.25,7.77982203 6.52982203,7.5 6.875,7.5 L13.125,7.5 Z M13.125,4.58333334 C13.470178,4.58333334 13.75,4.86315538 13.75,5.20833334 C13.75,5.5535113 13.470178,5.83333334 13.125,5.83333334 L6.875,5.83333334 C6.52982203,5.83333334 6.25,5.55351131 6.25,5.20833334 C6.25,4.86315537 6.52982203,4.58333334 6.875,4.58333334 L13.125,4.58333334 Z"></path>
</svg>