<?xml version="1.0" encoding="UTF-8"?>
<svg width="20px" height="20px" viewBox="0 0 20 20" version="1.1" xmlns="http://www.w3.org/2000/svg" xmlns:xlink="http://www.w3.org/1999/xlink">
            <path d="M12.9998781,2.0007515 C13.8025819,2.0007515 14.6013523,2.19605908 15.3093363,2.56518481 C15.5539544,2.69311408 15.6486742,2.9948455 15.5212246,3.23995931 C15.5121108,3.25751541 15.5019897,3.27419209 15.491149,3.29016527 C15.4683005,3.33357583 15.4386246,3.3743322 15.4021054,3.41085144 L15.4021054,3.41085144 L12.8382597,5.97322614 L14.0257106,7.16067705 L16.5895403,4.59830234 C16.61055,4.57727659 16.6330468,4.55866522 16.6565828,4.54216441 C16.6863547,4.51581427 16.719708,4.49256603 16.7565311,4.47329909 C16.9991985,4.34343514 17.3028966,4.43913027 17.4313056,4.68325275 C17.8028617,5.39318742 17.9996243,6.19392452 17.9996243,7.00052964 C17.9996243,9.75723659 15.7565531,12.0002918 12.9998621,12.0002918 C12.5180927,12.0002918 12.0521367,11.9315704 11.6109638,11.803801 L11.6109638,11.803801 L8.99875086,14.4156302 C8.9995663,14.4438671 9.00007795,14.47204 9.00007795,14.5001649 C9.00007795,16.4297526 7.42986255,18 5.50025883,18 C3.57065511,18 2.00040773,16.4297526 2.00040773,14.5001649 C2.00040773,12.5705612 3.57065509,11.0003298 5.50025883,11.0003298 C5.52843173,11.0003298 5.55662063,11.0008574 5.58488945,11.0016729 L5.58488945,11.0016729 L8.19683056,8.3901315 C8.0689173,7.94876673 8.00011594,7.48253884 8.00011594,7.00051366 C8.00011594,4.2438067 10.2431871,2.0007515 12.9998781,2.0007515 Z M8.60978258,9.39111683 L6.22405609,11.7764436 L6.13936152,12.0949796 C5.89621436,12.0305433 5.69308808,12.0002598 5.50022684,12.0002598 C4.12188136,12.0002598 3.00033777,13.1213077 3.00033777,14.5001489 C3.00033777,15.8789901 4.12188136,17.000038 5.50022684,17.000038 C6.87857233,17.000038 8.00009994,15.8789741 8.00009994,14.5001489 C8.00009994,14.306808 7.96983245,14.1036817 7.90538016,13.8615099 L7.90538016,13.8615099 L8.22380427,13.7765115 L10.6098026,11.390881 C9.766966,10.9301853 9.07057416,10.2338734 8.60978258,9.39111683 L8.60978258,9.39111683 Z M5.50024283,13.0002378 C6.32929673,13.0002378 7.00016988,13.671111 7.00016988,14.5001809 C7.00016988,15.3292508 6.32931272,16.0001239 5.50024283,16.0001239 C4.67117294,16.0001239 4.0002998,15.3292508 4.0002998,14.5001809 C4.0002998,13.671111 4.67117294,13.0002378 5.50024283,13.0002378 Z M5.50024283,14.0001839 C5.22436588,14.0001839 5.00026181,14.2243039 5.00026181,14.5001649 C5.00026181,14.7760259 5.22436588,15.0001459 5.50024283,15.0001459 C5.7761038,15.0001459 6.00022384,14.7760259 6.00022384,14.5001649 C6.00022384,14.2243039 5.7761038,14.0001839 5.50024283,14.0001839 Z M12.9998781,3.00071352 C10.7944294,3.00071352 9.00006195,4.79456928 9.00006195,7.00052964 C9.00006195,9.20649 10.7944134,11.0003458 12.9998781,11.0003458 C15.2053268,11.0003458 16.9996942,9.20647402 16.9996942,7.00052964 C16.9996942,6.58880878 16.9356097,6.17910256 16.8122373,5.78935081 L16.8122373,5.78935081 L14.3791989,8.22117403 C14.2815531,8.31881983 14.1536238,8.36765072 14.0257106,8.36765072 C13.8977813,8.36765072 13.769852,8.31881983 13.6722062,8.22117403 L13.6722062,8.22117403 L11.7777787,6.32673047 C11.6840342,6.23298602 11.631302,6.10603209 11.631302,5.97322614 C11.631302,5.84043617 11.6840342,5.71348225 11.7777787,5.61973781 L11.7777787,5.61973781 L14.2105293,3.18820239 C13.8206816,3.06481406 13.4111033,3.00071352 12.9998781,3.00071352 Z"></path>
</svg>